<?xml version="1.0" encoding="utf-8"?>
<!-- Generator: Adobe Illustrator 24.1.1, SVG Export Plug-In . SVG Version: 6.00 Build 0)  -->
<svg version="1.1" id="Layer_1" xmlns="http://www.w3.org/2000/svg" xmlns:xlink="http://www.w3.org/1999/xlink" x="0px" y="0px"
	 viewBox="0 0 512 512" style="enable-background:new 0 0 512 512;" xml:space="preserve">
<g>
	<path d="M184.02,231.27c-5.75,16.7-5.5,34.9,0.73,51.45c14.75,39.35,58.63,59.3,97.98,44.52c4.05-1.5,7.98-3.38,11.73-5.55
		c15.07-8.85,26.67-22.6,32.82-38.98h-68.45V232.1h122.95c8.83,46.5-8.73,94.07-45.63,123.73c-55.13,44.25-135.7,35.42-179.95-19.7
		s-35.45-135.68,19.68-179.95C198.6,137.95,226.88,128,256,128c31.08,0.02,59.55,11.07,81.7,29.5l-41.48,33.93
		c-35.7-22.23-82.65-11.3-104.88,24.4c-3.03,4.88-5.48,10.05-7.35,15.48h0.02V231.27z"/>
	<path d="M256,460.8c113.13,0,204.8-91.7,204.8-204.8S369.13,51.2,256,51.2C142.9,51.2,51.2,142.9,51.2,256S142.9,460.8,256,460.8z
		 M256,512C114.63,512,0,397.38,0,256C0,114.6,114.63,0,256,0c141.4,0,256,114.6,256,256C512,397.38,397.4,512,256,512z"/>
</g>
</svg>
