<svg height="24" viewBox="0 0 24 24" width="24" xmlns="http://www.w3.org/2000/svg"><path d="m18.14 9.63a6.1 6.1 0 0 0 -12 0 5 5 0 0 0 .86 9.87h10a5 5 0 0 0 1.14-9.87zm2 6.37a3.5 3.5 0 0 1 -3.14 2h-10a3.5 3.5 0 0 1 -3.16-2 3.41 3.41 0 0 1 -.34-1.5 3.5 3.5 0 0 1 2.5-3.36 3.45 3.45 0 0 1 1-.14 3 3 0 0 1 .52 0c0-.14 0-.28 0-.43a4.16 4.16 0 0 1 .13-1.06 4.61 4.61 0 0 1 9 0 4.85 4.85 0 0 1 .13 1.09v.41a1.51 1.51 0 0 1 .3 0 3.15 3.15 0 0 1 1.19.22 3.48 3.48 0 0 1 2.23 3.27 3.41 3.41 0 0 1 -.34 1.5z"/><path d="m0 0h24v24h-24z" fill="none"/></svg>