<svg height="24" viewBox="0 0 24 24" width="24" xmlns="http://www.w3.org/2000/svg"><path d="m15.92 5.71-.36-.45-2.41-3.06-.15-.15-.17-.05h-.13-.28-.13a.61.61 0 0 0 -.14.07l-.15.13-2.44 3.06-.36.45a4 4 0 0 0 -.69 2.29 4.24 4.24 0 0 0 0 .51 4.05 4.05 0 0 0 8 0 4.24 4.24 0 0 0 0-.51 4 4 0 0 0 -.59-2.29zm-3.36 4.81a2.55 2.55 0 0 1 -2.56-2.52 2.52 2.52 0 0 1 .43-1.41 1.76 1.76 0 0 1 .24-.3l.07-.08 1.77-2.25 1.77 2.25.07.08a1.76 1.76 0 0 1 .24.3 2.52 2.52 0 0 1 .52 1.41 2.55 2.55 0 0 1 -2.55 2.52z"/><path d="m20.87 15.76-.36-.45-2.41-3.06-.18-.15-.14-.1h-.13-.28-.13l-.14.07-.18.15-2.41 3.06-.36.45a4 4 0 0 0 -.69 2.27 4.24 4.24 0 0 0 0 .51 4.05 4.05 0 0 0 8 0 4.24 4.24 0 0 0 0-.51 4 4 0 0 0 -.59-2.24zm-3.36 4.81a2.55 2.55 0 0 1 -2.51-2.57 2.52 2.52 0 0 1 .43-1.41 1.76 1.76 0 0 1 .24-.3l.07-.08 1.74-2.21 1.77 2.25.07.08a1.76 1.76 0 0 1 .24.3 2.52 2.52 0 0 1 .5 1.37 2.55 2.55 0 0 1 -2.55 2.57z"/><path d="m9.85 14.74-.36-.45-2.41-3.06-.18-.15-.14-.08h-.13-.28-.13l-.14.07-.18.15-2.41 3.07-.36.45a4 4 0 0 0 -.69 2.26 4.24 4.24 0 0 0 0 .51 4.05 4.05 0 0 0 8 0 4.24 4.24 0 0 0 0-.51 4 4 0 0 0 -.59-2.26zm-3.36 4.81a2.55 2.55 0 0 1 -2.55-2.55 2.52 2.52 0 0 1 .43-1.41 1.76 1.76 0 0 1 .24-.3l.07-.08 1.78-2.21 1.83 2.2.07.08a1.76 1.76 0 0 1 .24.3 2.52 2.52 0 0 1 .4 1.42 2.55 2.55 0 0 1 -2.51 2.55z"/><path d="m0 0h24v24h-24z" fill="none"/></svg>