<svg height="512" preserveAspectRatio="xMidYMid meet" viewBox="0 0 512 512" width="512" xmlns="http://www.w3.org/2000/svg"><g transform="matrix(.1 0 0 -.1 0 512)"><path d="m1335 3548c-32-17-45-39-45-75 0-40 27-70 72-78 18-3 611-4 1316-3l1284 3 24 28c32 38 31 72-5 108l-29 29h-1299c-920-1-1304-4-1318-12z"/><path d="m1310 2638c-25-28-26-78-1-109l19-24 899-3c628-2 906 1 924 9 49 20 62 79 28 123l-20 26h-914-914z"/><path d="m1312 1747c-30-32-29-81 3-112l24-25h501 501l24 25c33 32 34 83 2 113-23 22-24 22-528 22h-506z"/></g></svg>