<svg height="24" viewBox="0 0 24 24" width="24" xmlns="http://www.w3.org/2000/svg"><path d="m0 0h24v24h-24z" fill="none"/><path d="m12 8.48a3.52 3.52 0 1 1 -3.52 3.52 3.53 3.53 0 0 1 3.52-3.52m0-1.48a5 5 0 1 0 5 5 5 5 0 0 0 -5-5z"/><path d="m12 22a.76.76 0 0 1 -.75-.75v-2.58a.75.75 0 0 1 1.5 0v2.58a.76.76 0 0 1 -.75.75z"/><path d="m22 12a.76.76 0 0 1 -.75.75h-2.58a.75.75 0 0 1 0-1.5h2.58a.76.76 0 0 1 .75.75z"/><path d="m6.08 12a.76.76 0 0 1 -.75.75h-2.58a.75.75 0 0 1 0-1.5h2.58a.76.76 0 0 1 .75.75z"/><path d="m12 6.08a.76.76 0 0 1 -.75-.75v-2.58a.75.75 0 0 1 1.5 0v2.58a.76.76 0 0 1 -.75.75z"/><path d="m4.92 19.07a.75.75 0 0 1 0-1.06l1.82-1.82a.74.74 0 0 1 1.06 0 .75.75 0 0 1 0 1.06l-1.8 1.82a.75.75 0 0 1 -1.08 0z"/><path d="m19.06 19.07a.75.75 0 0 1 -1.06 0l-1.82-1.82a.75.75 0 0 1 1.06-1.06l1.82 1.81a.75.75 0 0 1 0 1.07z"/><path d="m7.8 7.81a.75.75 0 0 1 -1.06 0l-1.82-1.81a.75.75 0 0 1 0-1.06.74.74 0 0 1 1.08-.01l1.8 1.82a.75.75 0 0 1 0 1.06z"/><path d="m16.18 7.81a.74.74 0 0 1 0-1.06l1.82-1.82a.74.74 0 0 1 1.06 0 .75.75 0 0 1 0 1.06l-1.82 1.82a.75.75 0 0 1 -1.06 0z"/></svg>